<?xml version="1.0" encoding="UTF-8" standalone="no"?>
<!-- Created with Inkscape (http://www.inkscape.org/) -->

<svg
   width="31.545788mm"
   height="44.999939mm"
   viewBox="0 0 31.545788 44.999939"
   version="1.1"
   id="svg1"
   xml:space="preserve"
   inkscape:version="1.3.2 (091e20e, 2023-11-25, custom)"
   sodipodi:docname="astro_white.svg"
   xmlns:inkscape="http://www.inkscape.org/namespaces/inkscape"
   xmlns:sodipodi="http://sodipodi.sourceforge.net/DTD/sodipodi-0.dtd"
   xmlns="http://www.w3.org/2000/svg"
   xmlns:svg="http://www.w3.org/2000/svg"><sodipodi:namedview
     id="namedview1"
     pagecolor="#ffffff"
     bordercolor="#000000"
     borderopacity="0.25"
     inkscape:showpageshadow="2"
     inkscape:pageopacity="0.0"
     inkscape:pagecheckerboard="0"
     inkscape:deskcolor="#d1d1d1"
     inkscape:document-units="mm"
     inkscape:zoom="0.72426347"
     inkscape:cx="358.98538"
     inkscape:cy="537.78772"
     inkscape:window-width="1920"
     inkscape:window-height="1009"
     inkscape:window-x="-8"
     inkscape:window-y="-8"
     inkscape:window-maximized="1"
     inkscape:current-layer="layer1" /><defs
     id="defs1" /><g
     inkscape:label="Layer 1"
     inkscape:groupmode="layer"
     id="layer1"
     transform="translate(-9.8353331,-5.9027458)"><path
       style="fill:#ffffff;fill-opacity:1;stroke-width:1.00119"
       d="m 26.995109,50.772239 c -0.942435,-0.48451 -1.821684,-1.36128 -2.2872,-2.28074 -0.396163,-0.78249 -0.502359,-1.26285 -0.554772,-2.50944 -0.06778,-1.61211 -0.168982,-2.11883 -0.514074,-2.57387 -0.171134,-0.22568 -0.526829,-0.47163 -0.801146,-0.554 -0.262934,-0.079 -0.934445,-0.10094 -1.192504,-0.0391 -0.4777,0.1146 -0.893065,0.3713 -1.203767,0.74395 -0.273806,0.32841 -0.464193,0.80362 -0.464193,1.15866 0,0.0944 -0.01662,0.16507 -0.03694,0.157 -0.0825,-0.0327 -0.557445,-0.60673 -0.784656,-0.9482 -0.987499,-1.48411 -1.431239,-3.42389 -1.245858,-5.44614 0.04836,-0.52772 0.187234,-1.323302 0.275429,-1.578051 l 0.05567,-0.160702 0.197226,0.271273 c 0.108479,0.149198 0.33582,0.388588 0.505213,0.531974 2.841401,2.405216 10.298532,2.620336 13.771327,0.397286 0.169382,-0.108431 0.353572,-0.239059 0.409288,-0.290289 0.127603,-0.117323 0.155677,-0.07935 0.251441,0.340199 0.554001,2.42696 -0.395713,4.80004 -2.574643,6.43333 -0.229885,0.17233 -0.80406,0.56235 -1.275933,0.86671 -1.016834,0.65586 -1.49087,1.0265 -1.8265,1.42814 -0.858495,1.02732 -1.009886,2.60224 -0.395312,4.11251 0.04295,0.1055 -0.002,0.0966 -0.308068,-0.0606 z M 9.8356975,36.203135 c 0.01031,-0.03 1.9286025,-6.301187 4.2629585,-13.935908 2.334356,-7.634723 4.297419,-14.0298081 4.362357,-14.2112981 0.204254,-0.570864 0.413613,-0.922553 0.74647,-1.253938 0.527901,-0.525578 1.067185,-0.776412 1.845634,-0.858457 0.513522,-0.05412 8.577758,-0.0545 9.131839,-4.4e-4 0.781213,0.07624 1.332831,0.326002 1.848317,0.836898 0.319551,0.316699 0.496372,0.597902 0.701317,1.115303 0.07519,0.189938 2.047634,6.6246211 4.383121,14.2992951 2.335488,7.674676 4.253948,13.976494 4.263249,14.004051 0.009,0.02755 -0.362743,-0.133039 -0.826777,-0.356867 -2.699412,-1.302112 -5.535998,-2.243578 -8.438883,-2.800873 l -0.51154,-0.09821 -2.343377,-7.922608 c -3.276851,-11.078514 -3.019625,-10.233125 -3.1582,-10.379559 -0.321243,-0.339459 -0.901956,-0.265511 -1.103357,0.140503 -0.04375,0.0883 -1.263758,4.210562 -2.710995,9.160566 l -2.631342,9.000005 -0.647863,0.121451 c -2.809934,0.526752 -6.088226,1.638285 -8.710277,2.953289 -0.264725,0.132765 -0.4729245,0.216824 -0.4626515,0.186793 z"
       id="path2" /></g></svg>
