<?xml version="1.0" encoding="UTF-8" standalone="no"?>
<!-- Created with Inkscape (http://www.inkscape.org/) -->

<svg
   width="52.904293mm"
   height="52.87516mm"
   viewBox="0 0 52.904293 52.87516"
   version="1.1"
   id="svg1"
   xml:space="preserve"
   inkscape:version="1.3.2 (091e20e, 2023-11-25, custom)"
   sodipodi:docname="icon_pablodev_color.svg"
   xmlns:inkscape="http://www.inkscape.org/namespaces/inkscape"
   xmlns:sodipodi="http://sodipodi.sourceforge.net/DTD/sodipodi-0.dtd"
   xmlns="http://www.w3.org/2000/svg"
   xmlns:svg="http://www.w3.org/2000/svg"><sodipodi:namedview
     id="namedview1"
     pagecolor="#ffffff"
     bordercolor="#000000"
     borderopacity="0.25"
     inkscape:showpageshadow="2"
     inkscape:pageopacity="0.0"
     inkscape:pagecheckerboard="0"
     inkscape:deskcolor="#d1d1d1"
     inkscape:document-units="mm"
     inkscape:zoom="1.4485269"
     inkscape:cx="211.59427"
     inkscape:cy="154.29468"
     inkscape:window-width="1920"
     inkscape:window-height="1009"
     inkscape:window-x="-8"
     inkscape:window-y="-8"
     inkscape:window-maximized="1"
     inkscape:current-layer="layer1" /><defs
     id="defs1" /><g
     inkscape:label="Layer 1"
     inkscape:groupmode="layer"
     id="layer1"
     transform="translate(-66.538983,-45.710049)"><path
       style="fill:#47c000;fill-opacity:1"
       d="m 77.380711,98.324377 c -5.08882,-0.81929 -9.76215,-5.59895 -10.57574,-10.81635 -0.35465,-2.27431 -0.35465,-28.41735 0,-30.69166 0.8339,-5.3477 5.49262,-10.00642 10.84032,-10.84033 2.27431,-0.35465 28.417359,-0.35465 30.691669,0 5.3477,0.83391 10.00642,5.49263 10.84032,10.84033 0.35466,2.27431 0.35466,28.41735 0,30.69166 -0.8339,5.3477 -5.49262,10.00642 -10.84032,10.84032 -2.11497,0.32981 -28.887649,0.30907 -30.956249,-0.024 z m 10.58333,-18.09239 v -4.10104 h -1.45521 -1.45521 v 2.64583 2.64584 h -1.32291 -1.32292 v -3.96875 -3.96875 h 9.08099 9.080999 l 1.27548,-0.4346 c 5.68624,-1.9375 5.69537,-10.68394 0.0132,-12.62006 l -1.28865,-0.43909 H 90.165901 79.761991 v 4.10104 4.10104 h 10.05416 10.05417 l 0.542699,-0.5427 c 0.54197,-0.54197 0.51874,-1.35687 -0.0562,-1.97084 -0.15277,-0.16315 -3.646339,-0.29385 -9.112469,-0.34092 l -8.86471,-0.0763 0.0802,-1.24658 0.0802,-1.24658 h 8.99584 8.995829 l 0.91668,0.53853 c 2.57383,1.51207 2.57383,5.34837 0,6.86044 l -0.91668,0.53853 -10.384899,0.0803 -10.38489,0.0803 v 6.73274 6.73274 h 4.10104 4.10104 z"
       id="path3" /></g></svg>
