<?xml version="1.0" encoding="UTF-8" standalone="no"?>
<!-- Created with Inkscape (http://www.inkscape.org/) -->

<svg
   width="31.508148mm"
   height="44.946316mm"
   viewBox="0 0 31.508148 44.946316"
   version="1.1"
   id="svg1"
   xml:space="preserve"
   inkscape:version="1.3.2 (091e20e, 2023-11-25, custom)"
   sodipodi:docname="astro_dark.svg"
   xmlns:inkscape="http://www.inkscape.org/namespaces/inkscape"
   xmlns:sodipodi="http://sodipodi.sourceforge.net/DTD/sodipodi-0.dtd"
   xmlns="http://www.w3.org/2000/svg"
   xmlns:svg="http://www.w3.org/2000/svg"><sodipodi:namedview
     id="namedview1"
     pagecolor="#ffffff"
     bordercolor="#000000"
     borderopacity="0.25"
     inkscape:showpageshadow="2"
     inkscape:pageopacity="0.0"
     inkscape:pagecheckerboard="0"
     inkscape:deskcolor="#d1d1d1"
     inkscape:document-units="mm"
     inkscape:zoom="2.8970539"
     inkscape:cx="123.22864"
     inkscape:cy="73.005201"
     inkscape:window-width="1920"
     inkscape:window-height="1009"
     inkscape:window-x="-8"
     inkscape:window-y="-8"
     inkscape:window-maximized="1"
     inkscape:current-layer="layer1" /><defs
     id="defs1" /><g
     inkscape:label="Layer 1"
     inkscape:groupmode="layer"
     id="layer1"
     transform="translate(-7.4489828,-7.0996973)"><path
       style="fill:#000000"
       d="m 24.588278,51.915633 c -0.941316,-0.483933 -1.819517,-1.359652 -2.284476,-2.27802 -0.395688,-0.781546 -0.501756,-1.261337 -0.554105,-2.50644 -0.0677,-1.610182 -0.168783,-2.116296 -0.51346,-2.570801 -0.170929,-0.225393 -0.5262,-0.471067 -0.800189,-0.553339 -0.262624,-0.07886 -0.933331,-0.100807 -1.191079,-0.03897 -0.477132,0.114462 -0.892006,0.370864 -1.202329,0.743068 -0.273482,0.328017 -0.46364,0.802661 -0.46364,1.15727 0,0.09431 -0.0166,0.164876 -0.03689,0.156819 -0.08237,-0.03271 -0.556788,-0.606002 -0.783729,-0.947073 -0.986312,-1.482336 -1.429526,-3.419805 -1.244369,-5.439646 0.04832,-0.527084 0.187013,-1.321715 0.275105,-1.576161 l 0.05557,-0.160506 0.196992,0.270947 c 0.108346,0.149021 0.33542,0.388125 0.504609,0.531342 2.838005,2.402343 10.286238,2.617217 13.754883,0.396816 0.16919,-0.108305 0.353154,-0.238783 0.408809,-0.289952 0.127451,-0.117176 0.155484,-0.07925 0.251139,0.339797 0.553341,2.424057 -0.395244,4.794314 -2.571569,6.425655 -0.229614,0.172115 -0.8031,0.561664 -1.274414,0.865664 -1.015621,0.655083 -1.489086,1.025287 -1.824316,1.426441 -0.857473,1.026101 -1.00868,2.599132 -0.394841,4.107604 0.04288,0.105376 -0.0023,0.09649 -0.307698,-0.06051 z M 7.4493464,37.363926 c 0.01026,-0.02999 1.926298,-6.293666 4.2578696,-13.919276 2.331573,-7.625611 4.292291,-14.0130615 4.357151,-14.194336 0.204012,-0.5701829 0.413122,-0.9214522 0.745576,-1.2524414 0.527274,-0.5249501 1.065913,-0.7754853 1.843438,-0.8574315 0.512909,-0.054057 8.567515,-0.054445 9.120932,-4.393e-4 0.780286,0.076145 1.331246,0.325613 1.846118,0.8358982 0.319164,0.3163208 0.495775,0.5971882 0.700471,1.1139724 0.07514,0.1897112 2.045196,6.6167126 4.377894,14.2822266 2.332698,7.665513 4.248872,13.959815 4.258164,13.987338 0.0093,0.02752 -0.362316,-0.132878 -0.825796,-0.356446 -2.696193,-1.300557 -5.529388,-2.240896 -8.428811,-2.797528 l -0.510924,-0.09809 -2.340584,-7.91315 C 23.577909,15.128933 23.834829,15.973313 23.696418,15.827054 23.375559,15.488 22.795541,15.56186 22.594372,15.967389 c -0.04375,0.0882 -1.262243,4.205536 -2.707753,9.149632 l -2.6282,8.989265 -0.647088,0.121303 c -2.806587,0.526123 -6.080968,1.636327 -8.6998846,2.949763 -0.26441,0.132607 -0.472355,0.216565 -0.4621,0.186574 z"
       id="path1" /></g></svg>
